<svg width="53" height="50" xmlns="http://www.w3.org/2000/svg">

 <g>
  <title>background</title>
  <rect fill="none" id="canvas_background" height="52" width="55" y="-1" x="-1"/>
 </g>
 <g>
  <title>Layer 1</title>
  <path stroke="null" id="svg_1" fill="#4CAF50" d="m26.136923,1.13387c-14.434344,0.002756 -26.133223,10.533585 -26.13016,23.521209c0.001021,4.497189 1.435318,8.899763 4.132601,12.685864l-4.066241,9.492719c-0.216538,0.504862 0.062787,1.072098 0.623887,1.266933c0.125472,0.043542 0.258702,0.065864 0.393158,0.06568c0.124757,0.000551 0.248595,-0.018648 0.365899,-0.056861l10.889898,-3.498028c12.252322,6.866075 28.370886,3.495089 36.001685,-7.529304s3.884414,-25.527339 -8.36801,-32.393322c-4.153326,-2.327548 -8.949528,-3.559207 -13.842718,-3.55489z"/>
  <path stroke="null" id="svg_2" fill="#FAFAFA" d="m41.247572,29.948106c0,0 -3.369016,-1.70015 -5.478502,-2.83354c-2.387176,-1.266612 -5.192433,1.105098 -6.512554,2.453928c-2.054567,-0.81315 -3.931099,-2.040446 -5.519756,-3.61003c-1.523683,-1.636528 -2.714886,-3.569918 -3.503864,-5.687003c1.309163,-1.36291 3.605581,-4.250376 2.381761,-6.709883c-1.086393,-2.176193 -2.750209,-5.6445 -2.750209,-5.647289c-0.233471,-0.47737 -0.70776,-0.778749 -1.226655,-0.77928l-2.750209,0c-4.005227,0.712735 -6.917357,4.313335 -6.875587,8.500752c0,4.448683 5.167681,12.994861 8.652336,16.587757s11.779373,8.9145 16.099933,8.9145c4.064271,0.043035 7.558982,-2.957465 8.250756,-7.083916l0,-2.83354c0.000387,-0.540329 -0.297156,-1.033771 -0.767449,-1.272456z"/>
  <g id="svg_3"/>
  <g id="svg_4"/>
  <g id="svg_5"/>
  <g id="svg_6"/>
  <g id="svg_7"/>
  <g id="svg_8"/>
  <g id="svg_9"/>
  <g id="svg_10"/>
  <g id="svg_11"/>
  <g id="svg_12"/>
  <g id="svg_13"/>
  <g id="svg_14"/>
  <g id="svg_15"/>
  <g id="svg_16"/>
  <g id="svg_17"/>
 </g>
</svg>